# xmcd
#
# Track frame offsets:
#	150
#	12890
#	23876
#	35668
#	47691
#	59130
#	70739
#	79043
#	91268
#	102053
#	116631
#	129345
#
# Disc length: 1874 seconds
#
# Revision: 0
# Processed by: cddbd v1.5.1PL0 Copyright (c) Steve Scherf et al.
# Submitted via: dBpowerAMP V4.0
#
DISCID=9707500c
DTITLE=Conway Twitty - Country
DYEAR=1900
DGENRE=
TTITLE0=Working Girl
TTITLE1=But I Dropped It
TTITLE2=Things Have Gone To Pieces
TTITLE3=Walk Me To The Door
TTITLE4=Two Of The Usual
TTITLE5=Life Turned Her That Way
TTITLE6=Go Woman Go
TTITLE7=Don't Put Your Hurt In My Heart
TTITLE8=Walk Through This World With Me
TTITLE9=I Threw Away The Rose
TTITLE10=A Wound Time Can't Ease
TTITLE11=Funny But I'm Not Laughing
EXTD=
EXTT0=
EXTT1=
EXTT2=
EXTT3=
EXTT4=
EXTT5=
EXTT6=
EXTT7=
EXTT8=
EXTT9=
EXTT10=
EXTT11=
PLAYORDER=
